M48
; TLSR8269 六路脉冲治疗仪 V3 - 钻孔文件
; 生成日期：2026-05-14
; 格式：Excellon
; 单位：毫米

METRIC,TZ

; 钻头定义
T1C0.300
T2C0.400
T3C1.000
T4C2.200

; 钻孔坐标
%
T1
X100000000Y65000000
X100000000Y65000000
X100000000Y65000000
X100000000Y65000000
X100000000Y65000000
X100000000Y65000000
X100000000Y65000000
X100000000Y65000000
X100000000Y65000000
T2
X55000000Y50000000
X65000000Y55000000
X75000000Y50000000
X85000000Y50000000
X95000000Y70000000
X105000000Y70000000
X115000000Y60000000
X125000000Y70000000
X135000000Y75000000
X140000000Y50000000
X140000000Y110000000
X55000000Y110000000
T3
X60000000Y55000000
X60000000Y70000000
X60000000Y75000000
X70000000Y55000000
X80000000Y60000000
X85000000Y55000000
X90000000Y50000000
X95000000Y50000000
X100000000Y65000000
X110000000Y55000000
X120000000Y55000000
X125000000Y80000000
X130000000Y100000000
X130000000Y100000000
X140000000Y110000000
X140000000Y110000000
X140000000Y110000000
X140000000Y110000000
X140000000Y110000000
X140000000Y110000000
X55000000Y50000000
X55000000Y50000000
X55000000Y110000000
X55000000Y110000000
X75000000Y95000000
X75000000Y95000000
X90000000Y95000000
X90000000Y95000000
X105000000Y95000000
X105000000Y95000000
X120000000Y95000000
X120000000Y95000000
X135000000Y95000000
X135000000Y95000000
X75000000Y110000000
X75000000Y110000000
T4
X55000000Y45000000
X145000000Y45000000
X55000000Y115000000
X145000000Y115000000
M30
